# xmcd
#
# Track frame offsets:
#	150
#	13512
#	26344
#	40767
#	55114
#	69887
#	85646
#	100038
#	115137
#	130143
#	142784
#	156120
#	170389
#	183060
#	196339
#	209792
#	223565
#	236713
#	252828
#
# Disc length: 3552 seconds
# Revision: 3
# Processed by: cddbd v1.5.2PL0 Copyright (c) Steve Scherf et al.
# Submitted via: dBpowerAMP V12.0
#
DISCID=f10dde13
DTITLE=Various Artist - American Epic: The Collection
DYEAR=1930
DGENRE=Blues
TTITLE0=Clarence Ashley - The Coo Coo Bird (The Cuckoo)
TTITLE1=Memphis Jug Band - On the Road Again
TTITLE2=Bukka White - The Panama Limited
TTITLE3=Hoyt Ming and His Pep Steppers - Indian War Whoop
TTITLE4=Frank Stokes - 'Tain't Nobody's Business If I Do (Part 1)
TTITLE5=Andrew and Jim Baxter - K. C. Railroad Blues
TTITLE6=Alfred G. Karnes - I Am Bound for the Promised Land
TTITLE7=Garfield Akers - Cottonfield Blues (Part 2)
TTITLE8=Bascom Lamar Lunsford - I Wish I Was a Mole in the Ground
TTITLE9=Bently Boys, The - Down on Penny's Farm
TTITLE10=Whistler's Jug Band - Foldin' Bed
TTITLE11=Weems String Band - Greenback Dollar
TTITLE12=Mattie Delaney - Tallahatchie River Blues
TTITLE13=Cannon's Jug Stompers - Walk Right In
TTITLE14=Carter Family, The - Bury Me Under the Weeping Willow
TTITLE15=Jim Jackson - Old Dog Blue
TTITLE16=Columbus Fruge - Bayou Teche
TTITLE17=Tommy Johnson - Cool Drink of Water Blues
TTITLE18=J. P. Nestor - Train on the Island
EXTD=
EXTT0=
EXTT1=
EXTT2=
EXTT3=
EXTT4=
EXTT5=
EXTT6=
EXTT7=
EXTT8=
EXTT9=
EXTT10=
EXTT11=
EXTT12=
EXTT13=
EXTT14=
EXTT15=
EXTT16=
EXTT17=
EXTT18=
PLAYORDER=
